<svg width="16" height="16" viewBox="0 0 24 24" fill="none" xmlns="http://www.w3.org/2000/svg"><path opacity=".1" d="M18.556 8.91L7.1 20.41A2 2 0 015.683 21h-1.68A1.007 1.007 0 013 19.992V18.3a2 2 0 01.583-1.412L15.065 5.36a.25.25 0 00.068.127l3.418 3.417a.429.429 0 00.005.005z" fill="#323232"/><path d="M20.065 7.394L7.1 20.411A2 2 0 015.683 21h-1.68A1.007 1.007 0 013 19.992V18.3a2 2 0 01.583-1.412l12.969-13.02c3.011-2.52 6.023 1.008 3.513 3.527zM15.31 5.31l3.417 3.418" stroke="#323232" stroke-width="2" stroke-linecap="round" stroke-linejoin="round"/></svg>